<svg xmlns="http://www.w3.org/2000/svg" xmlns:xlink="http://www.w3.org/1999/xlink" width="500" zoomAndPan="magnify" viewBox="0 0 375 374.999991" height="500" preserveAspectRatio="xMidYMid meet" version="1.0"><defs><g/><clipPath id="80c9b13330"><path d="M 127.164062 98 L 242 98 L 242 151 L 127.164062 151 Z M 127.164062 98 " clip-rule="nonzero"/></clipPath><clipPath id="8061eb0373"><path d="M 150 147 L 247.914062 147 L 247.914062 208 L 150 208 Z M 150 147 " clip-rule="nonzero"/></clipPath><clipPath id="2a9152d143"><path d="M 158 126 L 247.914062 126 L 247.914062 200 L 158 200 Z M 158 126 " clip-rule="nonzero"/></clipPath></defs><g clip-path="url(#80c9b13330)"><path fill="#ffffff" d="M 227.664062 142.503906 C 211.558594 118.433594 143.726562 80.441406 127.164062 121.9375 C 144.925781 70.296875 216.527344 116.496094 235.121094 134.941406 L 240.457031 129.40625 L 241.929688 150.617188 L 222.695312 147.019531 L 227.757812 142.410156 Z M 227.664062 142.503906 " fill-opacity="1" fill-rule="evenodd"/></g><path fill="#ffffff" d="M 215.515625 160.207031 C 203.183594 140.289062 144.742188 88.28125 130.382812 121.476562 C 146.121094 80.257812 207.234375 138.996094 221.773438 154.398438 L 226.191406 150.0625 L 226.835938 167.308594 L 211.375 163.894531 L 215.609375 160.300781 Z M 215.515625 160.207031 " fill-opacity="1" fill-rule="evenodd"/><g clip-path="url(#8061eb0373)"><path fill="#f49619" d="M 162.136719 154.582031 C 174.46875 174.5 232.910156 226.507812 247.269531 193.3125 C 231.53125 234.53125 170.417969 175.792969 155.878906 160.390625 L 151.460938 164.726562 L 150.816406 147.480469 L 166.277344 150.894531 L 162.042969 154.488281 Z M 162.136719 154.582031 " fill-opacity="1" fill-rule="evenodd"/></g><g clip-path="url(#2a9152d143)"><path fill="#f49619" d="M 170.785156 135.308594 C 179.53125 157.070312 227.941406 218.488281 247.914062 188.332031 C 225.273438 226.140625 175.296875 157.71875 163.609375 139.921875 L 158.453125 143.425781 L 160.847656 126.363281 L 175.480469 132.449219 L 170.695312 135.21875 Z M 170.785156 135.308594 " fill-opacity="1" fill-rule="evenodd"/></g><g fill="#ffffff" fill-opacity="1"><g transform="translate(131.752643, 238.29164)"><g><path d="M 6.984375 -9.65625 C 7.554688 -9.5 8.171875 -9.367188 8.828125 -9.265625 C 9.492188 -9.171875 10.222656 -9.125 11.015625 -9.125 C 12.359375 -9.125 13.546875 -9.3125 14.578125 -9.6875 C 15.617188 -10.0625 16.484375 -10.570312 17.171875 -11.21875 C 17.867188 -11.875 18.394531 -12.625 18.75 -13.46875 C 19.101562 -14.320312 19.28125 -15.234375 19.28125 -16.203125 C 19.28125 -17.128906 19.125 -18.015625 18.8125 -18.859375 C 18.507812 -19.710938 18.039062 -20.453125 17.40625 -21.078125 C 16.78125 -21.710938 15.992188 -22.21875 15.046875 -22.59375 C 14.097656 -22.96875 12.984375 -23.15625 11.703125 -23.15625 L 3.96875 -23.15625 L 3.96875 0 L 6.984375 0 Z M 6.984375 -21.703125 L 10.453125 -21.703125 C 11.378906 -21.703125 12.191406 -21.535156 12.890625 -21.203125 C 13.597656 -20.867188 14.179688 -20.429688 14.640625 -19.890625 C 15.109375 -19.359375 15.457031 -18.753906 15.6875 -18.078125 C 15.925781 -17.398438 16.046875 -16.734375 16.046875 -16.078125 C 16.046875 -15.429688 15.941406 -14.785156 15.734375 -14.140625 C 15.523438 -13.492188 15.1875 -12.90625 14.71875 -12.375 C 14.257812 -11.84375 13.675781 -11.410156 12.96875 -11.078125 C 12.257812 -10.742188 11.410156 -10.578125 10.421875 -10.578125 C 9.734375 -10.578125 9.101562 -10.601562 8.53125 -10.65625 C 7.957031 -10.71875 7.441406 -10.835938 6.984375 -11.015625 Z M 6.984375 -21.703125 "/></g></g></g><g fill="#ffffff" fill-opacity="1"><g transform="translate(150.708565, 238.29164)"><g><path d="M 16.84375 -6.8125 L 20.015625 0 L 23.21875 0 L 12.4375 -23.15625 L 10.78125 -23.15625 L 1 0 L 2.515625 0 L 5.421875 -6.8125 Z M 16.140625 -8.296875 L 6.046875 -8.296875 L 10.8125 -19.453125 L 10.953125 -19.453125 Z M 16.140625 -8.296875 "/></g></g></g><g fill="#ffffff" fill-opacity="1"><g transform="translate(173.601243, 238.29164)"><g><path d="M 1 -23.15625 L 9.203125 0 L 11.1875 0 L 17.5 -18.09375 L 17.65625 -18.09375 L 23.78125 0 L 25.734375 0 L 33.9375 -23.15625 L 32.421875 -23.15625 L 25.5625 -3.84375 L 25.4375 -3.84375 L 18.984375 -23.15625 L 17.5625 -23.15625 L 10.984375 -3.9375 L 10.84375 -3.9375 L 4.03125 -23.15625 Z M 1 -23.15625 "/></g></g></g><g fill="#ffffff" fill-opacity="1"><g transform="translate(207.21249, 238.29164)"><g><path d="M 3.96875 -23.15625 L 3.96875 0 L 6.984375 0 L 6.984375 -10.21875 L 8.4375 -10.21875 C 9.050781 -10.21875 9.5625 -10.160156 9.96875 -10.046875 C 10.375 -9.941406 10.742188 -9.753906 11.078125 -9.484375 C 11.410156 -9.222656 11.71875 -8.882812 12 -8.46875 C 12.289062 -8.050781 12.632812 -7.53125 13.03125 -6.90625 L 15.640625 -3.046875 C 15.972656 -2.535156 16.296875 -2.070312 16.609375 -1.65625 C 16.929688 -1.238281 17.28125 -0.878906 17.65625 -0.578125 C 18.03125 -0.273438 18.457031 -0.0390625 18.9375 0.125 C 19.414062 0.300781 19.984375 0.390625 20.640625 0.390625 C 21.128906 0.390625 21.523438 0.367188 21.828125 0.328125 C 22.140625 0.285156 22.445312 0.175781 22.75 0 L 22.75 -1.21875 C 22.644531 -1.195312 22.535156 -1.179688 22.421875 -1.171875 C 22.316406 -1.160156 22.207031 -1.15625 22.09375 -1.15625 C 21.632812 -1.15625 21.226562 -1.21875 20.875 -1.34375 C 20.519531 -1.476562 20.1875 -1.671875 19.875 -1.921875 C 19.570312 -2.179688 19.273438 -2.492188 18.984375 -2.859375 C 18.703125 -3.222656 18.40625 -3.640625 18.09375 -4.109375 C 17.164062 -5.453125 16.445312 -6.523438 15.9375 -7.328125 C 15.4375 -8.128906 15.035156 -8.75 14.734375 -9.1875 C 14.441406 -9.632812 14.203125 -9.957031 14.015625 -10.15625 C 13.828125 -10.351562 13.597656 -10.519531 13.328125 -10.65625 L 13 -10.8125 L 13 -10.953125 C 14.0625 -11.015625 14.972656 -11.242188 15.734375 -11.640625 C 16.492188 -12.035156 17.113281 -12.53125 17.59375 -13.125 C 18.082031 -13.726562 18.4375 -14.375 18.65625 -15.0625 C 18.875 -15.757812 18.984375 -16.4375 18.984375 -17.09375 C 18.984375 -17.695312 18.867188 -18.347656 18.640625 -19.046875 C 18.410156 -19.753906 18.015625 -20.410156 17.453125 -21.015625 C 16.890625 -21.628906 16.117188 -22.140625 15.140625 -22.546875 C 14.171875 -22.953125 12.953125 -23.15625 11.484375 -23.15625 Z M 6.984375 -21.703125 L 10.328125 -21.703125 C 11.160156 -21.703125 11.910156 -21.578125 12.578125 -21.328125 C 13.253906 -21.085938 13.832031 -20.753906 14.3125 -20.328125 C 14.800781 -19.898438 15.171875 -19.382812 15.421875 -18.78125 C 15.679688 -18.1875 15.8125 -17.539062 15.8125 -16.84375 C 15.8125 -16.238281 15.691406 -15.632812 15.453125 -15.03125 C 15.222656 -14.425781 14.878906 -13.875 14.421875 -13.375 C 13.960938 -12.882812 13.394531 -12.484375 12.71875 -12.171875 C 12.039062 -11.859375 11.265625 -11.703125 10.390625 -11.703125 L 6.984375 -11.703125 Z M 6.984375 -21.703125 "/></g></g></g><g fill="#ffffff" fill-opacity="1"><g transform="translate(229.642022, 238.29164)"><g><path d="M 5.296875 -23.15625 L 5.296875 0 L 8.296875 0 L 8.296875 -23.15625 Z M 5.296875 -23.15625 "/></g></g></g><g fill="#ffffff" fill-opacity="1"><g transform="translate(136.885426, 257.809699)"><g><path d="M 0.03125 -7.75 L 1.65625 -7.75 L 1.65625 -7.625 C 1.601562 -7.613281 1.550781 -7.585938 1.5 -7.546875 C 1.457031 -7.515625 1.4375 -7.457031 1.4375 -7.375 C 1.4375 -7.34375 1.445312 -7.300781 1.46875 -7.25 L 3.234375 -4.171875 L 4.921875 -7.09375 C 4.953125 -7.15625 4.972656 -7.203125 4.984375 -7.234375 C 4.992188 -7.265625 5 -7.300781 5 -7.34375 C 4.976562 -7.46875 4.929688 -7.546875 4.859375 -7.578125 C 4.785156 -7.609375 4.742188 -7.625 4.734375 -7.625 L 4.734375 -7.75 L 5.984375 -7.75 L 5.984375 -7.625 C 5.867188 -7.625 5.75 -7.550781 5.625 -7.40625 C 5.5 -7.257812 5.394531 -7.113281 5.3125 -6.96875 L 3.484375 -3.796875 L 3.484375 -0.765625 C 3.484375 -0.703125 3.492188 -0.632812 3.515625 -0.5625 C 3.535156 -0.488281 3.5625 -0.421875 3.59375 -0.359375 C 3.625 -0.296875 3.660156 -0.238281 3.703125 -0.1875 C 3.753906 -0.144531 3.8125 -0.125 3.875 -0.125 L 3.9375 -0.125 L 3.9375 0 L 2.25 0 L 2.25 -0.125 L 2.3125 -0.125 C 2.375 -0.125 2.425781 -0.144531 2.46875 -0.1875 C 2.519531 -0.226562 2.5625 -0.28125 2.59375 -0.34375 C 2.632812 -0.414062 2.660156 -0.488281 2.671875 -0.5625 C 2.691406 -0.632812 2.703125 -0.703125 2.703125 -0.765625 L 2.703125 -3.703125 L 0.8125 -6.9375 C 0.769531 -7 0.722656 -7.066406 0.671875 -7.140625 C 0.617188 -7.222656 0.5625 -7.296875 0.5 -7.359375 C 0.4375 -7.429688 0.367188 -7.492188 0.296875 -7.546875 C 0.222656 -7.597656 0.15625 -7.625 0.09375 -7.625 L 0.03125 -7.625 Z M 0.03125 -7.75 "/></g></g></g><g fill="#ffffff" fill-opacity="1"><g transform="translate(143.084644, 257.809699)"><g><path d="M 3 0.078125 C 2.601562 0.078125 2.25 0.015625 1.9375 -0.109375 C 1.625 -0.242188 1.351562 -0.421875 1.125 -0.640625 C 0.90625 -0.859375 0.734375 -1.117188 0.609375 -1.421875 C 0.492188 -1.734375 0.4375 -2.066406 0.4375 -2.421875 C 0.4375 -2.804688 0.5 -3.15625 0.625 -3.46875 C 0.757812 -3.789062 0.941406 -4.066406 1.171875 -4.296875 C 1.410156 -4.523438 1.691406 -4.703125 2.015625 -4.828125 C 2.335938 -4.953125 2.6875 -5.015625 3.0625 -5.015625 C 3.4375 -5.015625 3.78125 -4.953125 4.09375 -4.828125 C 4.40625 -4.703125 4.675781 -4.53125 4.90625 -4.3125 C 5.132812 -4.09375 5.3125 -3.832031 5.4375 -3.53125 C 5.5625 -3.238281 5.625 -2.910156 5.625 -2.546875 C 5.625 -2.210938 5.566406 -1.882812 5.453125 -1.5625 C 5.335938 -1.25 5.164062 -0.96875 4.9375 -0.71875 C 4.71875 -0.476562 4.445312 -0.285156 4.125 -0.140625 C 3.800781 0.00390625 3.425781 0.078125 3 0.078125 Z M 2.921875 -4.625 C 2.640625 -4.601562 2.390625 -4.53125 2.171875 -4.40625 C 1.960938 -4.289062 1.785156 -4.132812 1.640625 -3.9375 C 1.492188 -3.75 1.382812 -3.535156 1.3125 -3.296875 C 1.238281 -3.054688 1.203125 -2.8125 1.203125 -2.5625 C 1.203125 -2.269531 1.242188 -1.988281 1.328125 -1.71875 C 1.421875 -1.445312 1.550781 -1.207031 1.71875 -1 C 1.882812 -0.789062 2.082031 -0.625 2.3125 -0.5 C 2.550781 -0.375 2.816406 -0.3125 3.109375 -0.3125 C 3.398438 -0.3125 3.65625 -0.375 3.875 -0.5 C 4.101562 -0.625 4.289062 -0.785156 4.4375 -0.984375 C 4.582031 -1.179688 4.691406 -1.40625 4.765625 -1.65625 C 4.835938 -1.90625 4.875 -2.15625 4.875 -2.40625 C 4.875 -2.664062 4.832031 -2.925781 4.75 -3.1875 C 4.675781 -3.445312 4.554688 -3.679688 4.390625 -3.890625 C 4.234375 -4.109375 4.03125 -4.285156 3.78125 -4.421875 C 3.539062 -4.554688 3.253906 -4.625 2.921875 -4.625 Z M 2.921875 -4.625 "/></g></g></g><g fill="#ffffff" fill-opacity="1"><g transform="translate(149.21355, 257.809699)"><g><path d="M 5.171875 -0.765625 C 5.171875 -0.710938 5.175781 -0.644531 5.1875 -0.5625 C 5.207031 -0.488281 5.226562 -0.421875 5.25 -0.359375 C 5.28125 -0.296875 5.316406 -0.238281 5.359375 -0.1875 C 5.410156 -0.144531 5.46875 -0.125 5.53125 -0.125 L 5.53125 0 L 4.40625 0 L 4.40625 -0.640625 C 4.28125 -0.472656 4.101562 -0.304688 3.875 -0.140625 C 3.65625 0.0234375 3.363281 0.109375 3 0.109375 C 2.550781 0.109375 2.191406 0.03125 1.921875 -0.125 C 1.660156 -0.28125 1.457031 -0.476562 1.3125 -0.71875 C 1.175781 -0.96875 1.085938 -1.234375 1.046875 -1.515625 C 1.003906 -1.804688 0.984375 -2.078125 0.984375 -2.328125 L 0.984375 -4 C 0.984375 -4.070312 0.976562 -4.140625 0.96875 -4.203125 C 0.96875 -4.273438 0.953125 -4.335938 0.921875 -4.390625 C 0.898438 -4.441406 0.863281 -4.484375 0.8125 -4.515625 C 0.757812 -4.554688 0.679688 -4.578125 0.578125 -4.578125 L 0.578125 -4.6875 L 1.765625 -5.0625 L 1.765625 -2.0625 C 1.765625 -1.46875 1.890625 -1.03125 2.140625 -0.75 C 2.398438 -0.46875 2.71875 -0.328125 3.09375 -0.328125 C 3.300781 -0.328125 3.484375 -0.367188 3.640625 -0.453125 C 3.804688 -0.546875 3.941406 -0.65625 4.046875 -0.78125 C 4.160156 -0.90625 4.25 -1.035156 4.3125 -1.171875 C 4.375 -1.304688 4.40625 -1.414062 4.40625 -1.5 L 4.40625 -4 C 4.40625 -4.070312 4.398438 -4.140625 4.390625 -4.203125 C 4.390625 -4.273438 4.375 -4.335938 4.34375 -4.390625 C 4.320312 -4.441406 4.28125 -4.484375 4.21875 -4.515625 C 4.164062 -4.554688 4.085938 -4.578125 3.984375 -4.578125 L 3.984375 -4.6875 L 5.171875 -5.0625 Z M 5.171875 -0.765625 "/></g></g></g><g fill="#ffffff" fill-opacity="1"><g transform="translate(155.354174, 257.809699)"><g><path d="M 3.390625 -4.078125 C 3.296875 -4.234375 3.195312 -4.328125 3.09375 -4.359375 C 3 -4.398438 2.882812 -4.421875 2.75 -4.421875 C 2.65625 -4.421875 2.5625 -4.398438 2.46875 -4.359375 C 2.375 -4.328125 2.28125 -4.28125 2.1875 -4.21875 C 2.09375 -4.15625 2 -4.082031 1.90625 -4 C 1.8125 -3.925781 1.734375 -3.859375 1.671875 -3.796875 L 1.671875 -0.75 C 1.671875 -0.6875 1.675781 -0.617188 1.6875 -0.546875 C 1.707031 -0.484375 1.734375 -0.414062 1.765625 -0.34375 C 1.804688 -0.28125 1.847656 -0.226562 1.890625 -0.1875 C 1.929688 -0.144531 1.984375 -0.125 2.046875 -0.125 L 2.046875 0 L 0.53125 0 L 0.53125 -0.125 C 0.582031 -0.125 0.628906 -0.144531 0.671875 -0.1875 C 0.722656 -0.226562 0.765625 -0.28125 0.796875 -0.34375 C 0.835938 -0.414062 0.863281 -0.484375 0.875 -0.546875 C 0.894531 -0.617188 0.90625 -0.6875 0.90625 -0.75 L 0.90625 -4.03125 C 0.90625 -4.132812 0.867188 -4.238281 0.796875 -4.34375 C 0.722656 -4.457031 0.625 -4.53125 0.5 -4.5625 L 0.5 -4.65625 L 1.671875 -5.015625 L 1.671875 -4.3125 C 1.742188 -4.394531 1.816406 -4.476562 1.890625 -4.5625 C 1.972656 -4.644531 2.0625 -4.71875 2.15625 -4.78125 C 2.257812 -4.84375 2.367188 -4.894531 2.484375 -4.9375 C 2.597656 -4.988281 2.734375 -5.015625 2.890625 -5.015625 C 3.003906 -5.015625 3.144531 -4.988281 3.3125 -4.9375 C 3.488281 -4.894531 3.632812 -4.84375 3.75 -4.78125 Z M 3.390625 -4.078125 "/></g></g></g><g fill="#ffffff" fill-opacity="1"><g transform="translate(159.303393, 257.809699)"><g/></g></g><g fill="#ffffff" fill-opacity="1"><g transform="translate(162.350268, 257.809699)"><g><path d="M 3.5 -0.125 L 3.5625 -0.125 L 3.5625 0 L 1.890625 0 L 1.890625 -0.125 L 1.953125 -0.125 C 2.015625 -0.125 2.066406 -0.144531 2.109375 -0.1875 C 2.160156 -0.238281 2.203125 -0.296875 2.234375 -0.359375 C 2.265625 -0.421875 2.285156 -0.488281 2.296875 -0.5625 C 2.316406 -0.632812 2.328125 -0.703125 2.328125 -0.765625 L 2.328125 -7.3125 L 0.96875 -7.3125 C 0.84375 -7.3125 0.734375 -7.28125 0.640625 -7.21875 C 0.546875 -7.164062 0.46875 -7.097656 0.40625 -7.015625 C 0.34375 -6.941406 0.296875 -6.851562 0.265625 -6.75 C 0.234375 -6.65625 0.21875 -6.5625 0.21875 -6.46875 L 0.109375 -6.46875 L 0.109375 -7.75 L 5.375 -7.75 L 5.375 -6.46875 L 5.25 -6.46875 C 5.25 -6.5625 5.234375 -6.65625 5.203125 -6.75 C 5.171875 -6.851562 5.125 -6.941406 5.0625 -7.015625 C 5 -7.097656 4.921875 -7.164062 4.828125 -7.21875 C 4.734375 -7.28125 4.625 -7.3125 4.5 -7.3125 L 3.125 -7.3125 L 3.125 -0.765625 C 3.125 -0.703125 3.128906 -0.632812 3.140625 -0.5625 C 3.160156 -0.488281 3.1875 -0.421875 3.21875 -0.359375 C 3.257812 -0.296875 3.300781 -0.238281 3.34375 -0.1875 C 3.382812 -0.144531 3.4375 -0.125 3.5 -0.125 Z M 3.5 -0.125 "/></g></g></g><g fill="#ffffff" fill-opacity="1"><g transform="translate(167.834642, 257.809699)"><g><path d="M 3.625 0 L 3.625 -0.59375 L 3.5625 -0.546875 C 3.375 -0.347656 3.148438 -0.191406 2.890625 -0.078125 C 2.640625 0.0234375 2.332031 0.078125 1.96875 0.078125 C 1.695312 0.078125 1.460938 0.046875 1.265625 -0.015625 C 1.066406 -0.078125 0.90625 -0.164062 0.78125 -0.28125 C 0.65625 -0.394531 0.5625 -0.523438 0.5 -0.671875 C 0.445312 -0.816406 0.421875 -0.972656 0.421875 -1.140625 C 0.421875 -1.398438 0.492188 -1.628906 0.640625 -1.828125 C 0.785156 -2.035156 0.992188 -2.21875 1.265625 -2.375 C 1.535156 -2.53125 1.867188 -2.671875 2.265625 -2.796875 C 2.660156 -2.929688 3.113281 -3.0625 3.625 -3.1875 C 3.613281 -3.5 3.550781 -3.75 3.4375 -3.9375 C 3.332031 -4.125 3.203125 -4.269531 3.046875 -4.375 C 2.898438 -4.476562 2.742188 -4.546875 2.578125 -4.578125 C 2.410156 -4.617188 2.269531 -4.640625 2.15625 -4.640625 C 1.957031 -4.640625 1.78125 -4.609375 1.625 -4.546875 C 1.46875 -4.484375 1.332031 -4.398438 1.21875 -4.296875 C 1.113281 -4.203125 1.019531 -4.097656 0.9375 -3.984375 C 0.863281 -3.867188 0.800781 -3.757812 0.75 -3.65625 L 0.640625 -3.65625 L 0.640625 -4.515625 C 0.703125 -4.523438 0.757812 -4.546875 0.8125 -4.578125 C 0.875 -4.609375 0.941406 -4.640625 1.015625 -4.671875 C 1.140625 -4.710938 1.300781 -4.78125 1.5 -4.875 C 1.707031 -4.96875 1.992188 -5.015625 2.359375 -5.015625 C 2.785156 -5.015625 3.128906 -4.957031 3.390625 -4.84375 C 3.660156 -4.738281 3.867188 -4.59375 4.015625 -4.40625 C 4.160156 -4.226562 4.253906 -4.023438 4.296875 -3.796875 C 4.347656 -3.566406 4.375 -3.332031 4.375 -3.09375 L 4.375 -0.765625 C 4.375 -0.609375 4.410156 -0.460938 4.484375 -0.328125 C 4.554688 -0.191406 4.648438 -0.125 4.765625 -0.125 L 4.765625 0 Z M 3.625 -1.109375 L 3.625 -2.796875 L 3.515625 -2.765625 C 3.328125 -2.722656 3.097656 -2.660156 2.828125 -2.578125 C 2.554688 -2.503906 2.296875 -2.40625 2.046875 -2.28125 C 1.804688 -2.15625 1.597656 -2.003906 1.421875 -1.828125 C 1.253906 -1.660156 1.171875 -1.460938 1.171875 -1.234375 C 1.171875 -0.984375 1.269531 -0.773438 1.46875 -0.609375 C 1.675781 -0.441406 1.945312 -0.359375 2.28125 -0.359375 C 2.53125 -0.359375 2.753906 -0.414062 2.953125 -0.53125 C 3.148438 -0.644531 3.332031 -0.789062 3.5 -0.96875 Z M 3.625 -1.109375 "/></g></g></g><g fill="#ffffff" fill-opacity="1"><g transform="translate(173.190111, 257.809699)"><g><path d="M 3.546875 -0.125 C 3.691406 -0.125 3.765625 -0.175781 3.765625 -0.28125 C 3.765625 -0.320312 3.71875 -0.410156 3.625 -0.546875 L 2.453125 -2.15625 L 1.234375 -0.5 C 1.210938 -0.46875 1.1875 -0.425781 1.15625 -0.375 C 1.125 -0.320312 1.109375 -0.273438 1.109375 -0.234375 C 1.109375 -0.160156 1.148438 -0.125 1.234375 -0.125 L 1.234375 0 L 0.125 0 L 0.125 -0.125 C 0.238281 -0.125 0.359375 -0.164062 0.484375 -0.25 C 0.609375 -0.34375 0.710938 -0.453125 0.796875 -0.578125 L 2.21875 -2.5 L 0.90625 -4.28125 C 0.863281 -4.332031 0.816406 -4.390625 0.765625 -4.453125 C 0.710938 -4.515625 0.65625 -4.570312 0.59375 -4.625 C 0.53125 -4.675781 0.460938 -4.71875 0.390625 -4.75 C 0.328125 -4.789062 0.269531 -4.8125 0.21875 -4.8125 L 0.21875 -4.921875 L 1.921875 -4.921875 L 1.921875 -4.8125 C 1.878906 -4.8125 1.832031 -4.796875 1.78125 -4.765625 C 1.726562 -4.734375 1.703125 -4.675781 1.703125 -4.59375 C 1.703125 -4.53125 1.722656 -4.472656 1.765625 -4.421875 L 2.71875 -3.109375 L 3.625 -4.3125 C 3.6875 -4.382812 3.722656 -4.441406 3.734375 -4.484375 C 3.753906 -4.535156 3.765625 -4.582031 3.765625 -4.625 C 3.765625 -4.664062 3.75 -4.707031 3.71875 -4.75 C 3.695312 -4.789062 3.660156 -4.8125 3.609375 -4.8125 L 3.609375 -4.921875 L 4.734375 -4.921875 L 4.734375 -4.8125 C 4.609375 -4.8125 4.488281 -4.75 4.375 -4.625 C 4.269531 -4.507812 4.171875 -4.394531 4.078125 -4.28125 L 2.953125 -2.765625 L 4.515625 -0.640625 C 4.617188 -0.503906 4.738281 -0.382812 4.875 -0.28125 C 5.019531 -0.175781 5.148438 -0.125 5.265625 -0.125 L 5.265625 0 L 3.546875 0 Z M 3.546875 -0.125 "/></g></g></g><g fill="#ffffff" fill-opacity="1"><g transform="translate(178.651048, 257.809699)"><g/></g></g><g fill="#ffffff" fill-opacity="1"><g transform="translate(181.697923, 257.809699)"><g><path d="M 4.65625 -7.4375 C 4.082031 -7.4375 3.582031 -7.332031 3.15625 -7.125 C 2.726562 -6.914062 2.375 -6.644531 2.09375 -6.3125 C 1.8125 -5.976562 1.597656 -5.601562 1.453125 -5.1875 C 1.316406 -4.78125 1.25 -4.375 1.25 -3.96875 C 1.25 -3.507812 1.335938 -3.054688 1.515625 -2.609375 C 1.703125 -2.171875 1.953125 -1.78125 2.265625 -1.4375 C 2.585938 -1.09375 2.957031 -0.816406 3.375 -0.609375 C 3.800781 -0.410156 4.257812 -0.3125 4.75 -0.3125 C 4.894531 -0.3125 5.0625 -0.328125 5.25 -0.359375 C 5.4375 -0.390625 5.625 -0.445312 5.8125 -0.53125 C 6.007812 -0.625 6.1875 -0.75 6.34375 -0.90625 C 6.5 -1.070312 6.625 -1.289062 6.71875 -1.5625 L 6.828125 -1.5625 L 6.828125 -0.265625 C 6.710938 -0.265625 6.585938 -0.25 6.453125 -0.21875 C 6.328125 -0.1875 6.1875 -0.148438 6.03125 -0.109375 C 5.820312 -0.0546875 5.59375 -0.00390625 5.34375 0.046875 C 5.101562 0.0976562 4.847656 0.125 4.578125 0.125 C 3.898438 0.125 3.300781 0.00390625 2.78125 -0.234375 C 2.257812 -0.472656 1.828125 -0.78125 1.484375 -1.15625 C 1.140625 -1.53125 0.878906 -1.953125 0.703125 -2.421875 C 0.535156 -2.898438 0.453125 -3.378906 0.453125 -3.859375 C 0.453125 -4.347656 0.535156 -4.828125 0.703125 -5.296875 C 0.878906 -5.773438 1.144531 -6.203125 1.5 -6.578125 C 1.851562 -6.960938 2.296875 -7.269531 2.828125 -7.5 C 3.359375 -7.738281 3.984375 -7.859375 4.703125 -7.859375 C 4.960938 -7.859375 5.195312 -7.832031 5.40625 -7.78125 C 5.613281 -7.738281 5.800781 -7.695312 5.96875 -7.65625 C 6.082031 -7.613281 6.1875 -7.582031 6.28125 -7.5625 C 6.382812 -7.539062 6.484375 -7.53125 6.578125 -7.53125 L 6.578125 -6.234375 L 6.453125 -6.234375 C 6.410156 -6.472656 6.328125 -6.671875 6.203125 -6.828125 C 6.078125 -6.992188 5.925781 -7.117188 5.75 -7.203125 C 5.582031 -7.285156 5.398438 -7.34375 5.203125 -7.375 C 5.015625 -7.414062 4.832031 -7.4375 4.65625 -7.4375 Z M 4.65625 -7.4375 "/></g></g></g><g fill="#ffffff" fill-opacity="1"><g transform="translate(188.998703, 257.809699)"><g><path d="M 3 0.078125 C 2.601562 0.078125 2.25 0.015625 1.9375 -0.109375 C 1.625 -0.242188 1.351562 -0.421875 1.125 -0.640625 C 0.90625 -0.859375 0.734375 -1.117188 0.609375 -1.421875 C 0.492188 -1.734375 0.4375 -2.066406 0.4375 -2.421875 C 0.4375 -2.804688 0.5 -3.15625 0.625 -3.46875 C 0.757812 -3.789062 0.941406 -4.066406 1.171875 -4.296875 C 1.410156 -4.523438 1.691406 -4.703125 2.015625 -4.828125 C 2.335938 -4.953125 2.6875 -5.015625 3.0625 -5.015625 C 3.4375 -5.015625 3.78125 -4.953125 4.09375 -4.828125 C 4.40625 -4.703125 4.675781 -4.53125 4.90625 -4.3125 C 5.132812 -4.09375 5.3125 -3.832031 5.4375 -3.53125 C 5.5625 -3.238281 5.625 -2.910156 5.625 -2.546875 C 5.625 -2.210938 5.566406 -1.882812 5.453125 -1.5625 C 5.335938 -1.25 5.164062 -0.96875 4.9375 -0.71875 C 4.71875 -0.476562 4.445312 -0.285156 4.125 -0.140625 C 3.800781 0.00390625 3.425781 0.078125 3 0.078125 Z M 2.921875 -4.625 C 2.640625 -4.601562 2.390625 -4.53125 2.171875 -4.40625 C 1.960938 -4.289062 1.785156 -4.132812 1.640625 -3.9375 C 1.492188 -3.75 1.382812 -3.535156 1.3125 -3.296875 C 1.238281 -3.054688 1.203125 -2.8125 1.203125 -2.5625 C 1.203125 -2.269531 1.242188 -1.988281 1.328125 -1.71875 C 1.421875 -1.445312 1.550781 -1.207031 1.71875 -1 C 1.882812 -0.789062 2.082031 -0.625 2.3125 -0.5 C 2.550781 -0.375 2.816406 -0.3125 3.109375 -0.3125 C 3.398438 -0.3125 3.65625 -0.375 3.875 -0.5 C 4.101562 -0.625 4.289062 -0.785156 4.4375 -0.984375 C 4.582031 -1.179688 4.691406 -1.40625 4.765625 -1.65625 C 4.835938 -1.90625 4.875 -2.15625 4.875 -2.40625 C 4.875 -2.664062 4.832031 -2.925781 4.75 -3.1875 C 4.675781 -3.445312 4.554688 -3.679688 4.390625 -3.890625 C 4.234375 -4.109375 4.03125 -4.285156 3.78125 -4.421875 C 3.539062 -4.554688 3.253906 -4.625 2.921875 -4.625 Z M 2.921875 -4.625 "/></g></g></g><g fill="#ffffff" fill-opacity="1"><g transform="translate(195.127609, 257.809699)"><g><path d="M 5.25 -0.765625 C 5.25 -0.703125 5.253906 -0.632812 5.265625 -0.5625 C 5.285156 -0.488281 5.3125 -0.421875 5.34375 -0.359375 C 5.375 -0.296875 5.410156 -0.238281 5.453125 -0.1875 C 5.503906 -0.144531 5.5625 -0.125 5.625 -0.125 L 5.625 0 L 4.109375 0 L 4.109375 -0.125 C 4.160156 -0.125 4.207031 -0.144531 4.25 -0.1875 C 4.300781 -0.238281 4.34375 -0.296875 4.375 -0.359375 C 4.414062 -0.421875 4.441406 -0.488281 4.453125 -0.5625 C 4.472656 -0.632812 4.484375 -0.703125 4.484375 -0.765625 L 4.484375 -2.953125 C 4.484375 -3.234375 4.441406 -3.476562 4.359375 -3.6875 C 4.285156 -3.894531 4.179688 -4.066406 4.046875 -4.203125 C 3.910156 -4.347656 3.757812 -4.453125 3.59375 -4.515625 C 3.425781 -4.585938 3.257812 -4.625 3.09375 -4.625 C 2.914062 -4.625 2.742188 -4.585938 2.578125 -4.515625 C 2.410156 -4.441406 2.257812 -4.347656 2.125 -4.234375 C 2 -4.128906 1.894531 -4 1.8125 -3.84375 C 1.726562 -3.6875 1.6875 -3.53125 1.6875 -3.375 L 1.6875 -0.765625 C 1.6875 -0.703125 1.691406 -0.632812 1.703125 -0.5625 C 1.722656 -0.488281 1.75 -0.421875 1.78125 -0.359375 C 1.820312 -0.296875 1.863281 -0.238281 1.90625 -0.1875 C 1.945312 -0.144531 2 -0.125 2.0625 -0.125 L 2.0625 0 L 0.546875 0 L 0.546875 -0.125 C 0.597656 -0.125 0.644531 -0.144531 0.6875 -0.1875 C 0.738281 -0.238281 0.78125 -0.296875 0.8125 -0.359375 C 0.851562 -0.421875 0.878906 -0.488281 0.890625 -0.5625 C 0.910156 -0.632812 0.921875 -0.703125 0.921875 -0.765625 L 0.921875 -4 C 0.921875 -4.132812 0.898438 -4.257812 0.859375 -4.375 C 0.816406 -4.5 0.703125 -4.566406 0.515625 -4.578125 L 0.515625 -4.6875 L 1.6875 -5.0625 L 1.6875 -4.40625 C 1.738281 -4.46875 1.804688 -4.535156 1.890625 -4.609375 C 1.984375 -4.691406 2.085938 -4.765625 2.203125 -4.828125 C 2.328125 -4.890625 2.46875 -4.941406 2.625 -4.984375 C 2.789062 -5.035156 2.984375 -5.0625 3.203125 -5.0625 C 3.566406 -5.0625 3.878906 -5 4.140625 -4.875 C 4.398438 -4.75 4.609375 -4.582031 4.765625 -4.375 C 4.929688 -4.175781 5.050781 -3.957031 5.125 -3.71875 C 5.207031 -3.488281 5.25 -3.257812 5.25 -3.03125 Z M 5.25 -0.765625 "/></g></g></g><g fill="#ffffff" fill-opacity="1"><g transform="translate(201.361984, 257.809699)"><g><path d="M 4.34375 -1.34375 C 4.34375 -1.132812 4.289062 -0.941406 4.1875 -0.765625 C 4.082031 -0.597656 3.941406 -0.445312 3.765625 -0.3125 C 3.597656 -0.1875 3.394531 -0.0859375 3.15625 -0.015625 C 2.914062 0.0546875 2.660156 0.09375 2.390625 0.09375 C 2.054688 0.09375 1.78125 0.0507812 1.5625 -0.03125 C 1.351562 -0.125 1.175781 -0.21875 1.03125 -0.3125 C 0.925781 -0.375 0.832031 -0.425781 0.75 -0.46875 C 0.664062 -0.519531 0.570312 -0.546875 0.46875 -0.546875 L 0.46875 -1.4375 L 0.59375 -1.4375 C 0.613281 -1.320312 0.679688 -1.195312 0.796875 -1.0625 C 0.910156 -0.9375 1.046875 -0.816406 1.203125 -0.703125 C 1.359375 -0.597656 1.53125 -0.507812 1.71875 -0.4375 C 1.914062 -0.363281 2.113281 -0.328125 2.3125 -0.328125 C 2.445312 -0.328125 2.585938 -0.34375 2.734375 -0.375 C 2.890625 -0.40625 3.023438 -0.457031 3.140625 -0.53125 C 3.265625 -0.601562 3.367188 -0.691406 3.453125 -0.796875 C 3.535156 -0.898438 3.578125 -1.023438 3.578125 -1.171875 C 3.578125 -1.316406 3.535156 -1.441406 3.453125 -1.546875 C 3.367188 -1.660156 3.257812 -1.757812 3.125 -1.84375 C 2.988281 -1.925781 2.832031 -2 2.65625 -2.0625 C 2.488281 -2.125 2.316406 -2.179688 2.140625 -2.234375 C 1.941406 -2.296875 1.738281 -2.363281 1.53125 -2.4375 C 1.320312 -2.519531 1.132812 -2.613281 0.96875 -2.71875 C 0.8125 -2.832031 0.679688 -2.960938 0.578125 -3.109375 C 0.472656 -3.265625 0.421875 -3.445312 0.421875 -3.65625 C 0.421875 -3.84375 0.453125 -4.015625 0.515625 -4.171875 C 0.585938 -4.335938 0.695312 -4.476562 0.84375 -4.59375 C 1 -4.71875 1.195312 -4.816406 1.4375 -4.890625 C 1.6875 -4.972656 1.984375 -5.015625 2.328125 -5.015625 C 2.628906 -5.015625 2.863281 -4.988281 3.03125 -4.9375 C 3.195312 -4.882812 3.335938 -4.832031 3.453125 -4.78125 C 3.523438 -4.738281 3.59375 -4.707031 3.65625 -4.6875 C 3.726562 -4.664062 3.804688 -4.65625 3.890625 -4.65625 L 3.890625 -3.84375 L 3.796875 -3.84375 C 3.660156 -4.09375 3.445312 -4.285156 3.15625 -4.421875 C 2.863281 -4.554688 2.566406 -4.625 2.265625 -4.625 C 2.066406 -4.625 1.894531 -4.597656 1.75 -4.546875 C 1.613281 -4.492188 1.5 -4.429688 1.40625 -4.359375 C 1.320312 -4.285156 1.257812 -4.203125 1.21875 -4.109375 C 1.175781 -4.015625 1.15625 -3.921875 1.15625 -3.828125 C 1.15625 -3.691406 1.191406 -3.578125 1.265625 -3.484375 C 1.335938 -3.390625 1.4375 -3.304688 1.5625 -3.234375 C 1.695312 -3.171875 1.84375 -3.109375 2 -3.046875 C 2.15625 -2.984375 2.328125 -2.921875 2.515625 -2.859375 C 2.734375 -2.785156 2.953125 -2.707031 3.171875 -2.625 C 3.390625 -2.550781 3.582031 -2.453125 3.75 -2.328125 C 3.925781 -2.210938 4.066406 -2.070312 4.171875 -1.90625 C 4.285156 -1.75 4.34375 -1.5625 4.34375 -1.34375 Z M 4.34375 -1.34375 "/></g></g></g><g fill="#ffffff" fill-opacity="1"><g transform="translate(206.17839, 257.809699)"><g><path d="M 5.171875 -0.765625 C 5.171875 -0.710938 5.175781 -0.644531 5.1875 -0.5625 C 5.207031 -0.488281 5.226562 -0.421875 5.25 -0.359375 C 5.28125 -0.296875 5.316406 -0.238281 5.359375 -0.1875 C 5.410156 -0.144531 5.46875 -0.125 5.53125 -0.125 L 5.53125 0 L 4.40625 0 L 4.40625 -0.640625 C 4.28125 -0.472656 4.101562 -0.304688 3.875 -0.140625 C 3.65625 0.0234375 3.363281 0.109375 3 0.109375 C 2.550781 0.109375 2.191406 0.03125 1.921875 -0.125 C 1.660156 -0.28125 1.457031 -0.476562 1.3125 -0.71875 C 1.175781 -0.96875 1.085938 -1.234375 1.046875 -1.515625 C 1.003906 -1.804688 0.984375 -2.078125 0.984375 -2.328125 L 0.984375 -4 C 0.984375 -4.070312 0.976562 -4.140625 0.96875 -4.203125 C 0.96875 -4.273438 0.953125 -4.335938 0.921875 -4.390625 C 0.898438 -4.441406 0.863281 -4.484375 0.8125 -4.515625 C 0.757812 -4.554688 0.679688 -4.578125 0.578125 -4.578125 L 0.578125 -4.6875 L 1.765625 -5.0625 L 1.765625 -2.0625 C 1.765625 -1.46875 1.890625 -1.03125 2.140625 -0.75 C 2.398438 -0.46875 2.71875 -0.328125 3.09375 -0.328125 C 3.300781 -0.328125 3.484375 -0.367188 3.640625 -0.453125 C 3.804688 -0.546875 3.941406 -0.65625 4.046875 -0.78125 C 4.160156 -0.90625 4.25 -1.035156 4.3125 -1.171875 C 4.375 -1.304688 4.40625 -1.414062 4.40625 -1.5 L 4.40625 -4 C 4.40625 -4.070312 4.398438 -4.140625 4.390625 -4.203125 C 4.390625 -4.273438 4.375 -4.335938 4.34375 -4.390625 C 4.320312 -4.441406 4.28125 -4.484375 4.21875 -4.515625 C 4.164062 -4.554688 4.085938 -4.578125 3.984375 -4.578125 L 3.984375 -4.6875 L 5.171875 -5.0625 Z M 5.171875 -0.765625 "/></g></g></g><g fill="#ffffff" fill-opacity="1"><g transform="translate(212.319014, 257.809699)"><g><path d="M 0.578125 0 L 0.578125 -0.125 C 0.640625 -0.125 0.691406 -0.144531 0.734375 -0.1875 C 0.785156 -0.238281 0.828125 -0.296875 0.859375 -0.359375 C 0.898438 -0.421875 0.925781 -0.488281 0.9375 -0.5625 C 0.957031 -0.632812 0.96875 -0.703125 0.96875 -0.765625 L 0.96875 -6.765625 C 0.96875 -6.898438 0.945312 -7.023438 0.90625 -7.140625 C 0.863281 -7.265625 0.742188 -7.328125 0.546875 -7.328125 L 0.546875 -7.453125 L 1.734375 -7.8125 L 1.734375 -0.765625 C 1.734375 -0.703125 1.738281 -0.632812 1.75 -0.5625 C 1.769531 -0.488281 1.796875 -0.421875 1.828125 -0.359375 C 1.867188 -0.296875 1.910156 -0.238281 1.953125 -0.1875 C 1.992188 -0.144531 2.046875 -0.125 2.109375 -0.125 L 2.109375 0 Z M 0.578125 0 "/></g></g></g><g fill="#ffffff" fill-opacity="1"><g transform="translate(215.026045, 257.809699)"><g><path d="M 1.671875 -4.53125 L 1.671875 -1.703125 C 1.671875 -1.492188 1.675781 -1.304688 1.6875 -1.140625 C 1.695312 -0.984375 1.71875 -0.847656 1.75 -0.734375 C 1.78125 -0.628906 1.828125 -0.546875 1.890625 -0.484375 C 1.953125 -0.429688 2.035156 -0.40625 2.140625 -0.40625 C 2.304688 -0.40625 2.460938 -0.484375 2.609375 -0.640625 C 2.753906 -0.796875 2.847656 -0.984375 2.890625 -1.203125 L 3 -1.203125 L 3 -0.34375 C 2.925781 -0.34375 2.863281 -0.316406 2.8125 -0.265625 C 2.75 -0.210938 2.660156 -0.15625 2.546875 -0.09375 C 2.429688 -0.03125 2.265625 0 2.046875 0 C 1.765625 0 1.546875 -0.0507812 1.390625 -0.15625 C 1.234375 -0.269531 1.117188 -0.414062 1.046875 -0.59375 C 0.972656 -0.78125 0.929688 -0.984375 0.921875 -1.203125 C 0.910156 -1.421875 0.90625 -1.640625 0.90625 -1.859375 L 0.90625 -4.53125 L 0.25 -4.53125 L 0.25 -4.921875 L 0.90625 -4.921875 L 0.90625 -5.96875 C 0.90625 -6.101562 0.882812 -6.226562 0.84375 -6.34375 C 0.8125 -6.457031 0.695312 -6.519531 0.5 -6.53125 L 0.5 -6.640625 L 1.671875 -7.015625 L 1.671875 -4.921875 L 3 -4.921875 L 3 -4.53125 Z M 1.671875 -4.53125 "/></g></g></g><g fill="#ffffff" fill-opacity="1"><g transform="translate(218.365889, 257.809699)"><g><path d="M 3.625 0 L 3.625 -0.59375 L 3.5625 -0.546875 C 3.375 -0.347656 3.148438 -0.191406 2.890625 -0.078125 C 2.640625 0.0234375 2.332031 0.078125 1.96875 0.078125 C 1.695312 0.078125 1.460938 0.046875 1.265625 -0.015625 C 1.066406 -0.078125 0.90625 -0.164062 0.78125 -0.28125 C 0.65625 -0.394531 0.5625 -0.523438 0.5 -0.671875 C 0.445312 -0.816406 0.421875 -0.972656 0.421875 -1.140625 C 0.421875 -1.398438 0.492188 -1.628906 0.640625 -1.828125 C 0.785156 -2.035156 0.992188 -2.21875 1.265625 -2.375 C 1.535156 -2.53125 1.867188 -2.671875 2.265625 -2.796875 C 2.660156 -2.929688 3.113281 -3.0625 3.625 -3.1875 C 3.613281 -3.5 3.550781 -3.75 3.4375 -3.9375 C 3.332031 -4.125 3.203125 -4.269531 3.046875 -4.375 C 2.898438 -4.476562 2.742188 -4.546875 2.578125 -4.578125 C 2.410156 -4.617188 2.269531 -4.640625 2.15625 -4.640625 C 1.957031 -4.640625 1.78125 -4.609375 1.625 -4.546875 C 1.46875 -4.484375 1.332031 -4.398438 1.21875 -4.296875 C 1.113281 -4.203125 1.019531 -4.097656 0.9375 -3.984375 C 0.863281 -3.867188 0.800781 -3.757812 0.75 -3.65625 L 0.640625 -3.65625 L 0.640625 -4.515625 C 0.703125 -4.523438 0.757812 -4.546875 0.8125 -4.578125 C 0.875 -4.609375 0.941406 -4.640625 1.015625 -4.671875 C 1.140625 -4.710938 1.300781 -4.78125 1.5 -4.875 C 1.707031 -4.96875 1.992188 -5.015625 2.359375 -5.015625 C 2.785156 -5.015625 3.128906 -4.957031 3.390625 -4.84375 C 3.660156 -4.738281 3.867188 -4.59375 4.015625 -4.40625 C 4.160156 -4.226562 4.253906 -4.023438 4.296875 -3.796875 C 4.347656 -3.566406 4.375 -3.332031 4.375 -3.09375 L 4.375 -0.765625 C 4.375 -0.609375 4.410156 -0.460938 4.484375 -0.328125 C 4.554688 -0.191406 4.648438 -0.125 4.765625 -0.125 L 4.765625 0 Z M 3.625 -1.109375 L 3.625 -2.796875 L 3.515625 -2.765625 C 3.328125 -2.722656 3.097656 -2.660156 2.828125 -2.578125 C 2.554688 -2.503906 2.296875 -2.40625 2.046875 -2.28125 C 1.804688 -2.15625 1.597656 -2.003906 1.421875 -1.828125 C 1.253906 -1.660156 1.171875 -1.460938 1.171875 -1.234375 C 1.171875 -0.984375 1.269531 -0.773438 1.46875 -0.609375 C 1.675781 -0.441406 1.945312 -0.359375 2.28125 -0.359375 C 2.53125 -0.359375 2.753906 -0.414062 2.953125 -0.53125 C 3.148438 -0.644531 3.332031 -0.789062 3.5 -0.96875 Z M 3.625 -1.109375 "/></g></g></g><g fill="#ffffff" fill-opacity="1"><g transform="translate(223.721357, 257.809699)"><g><path d="M 5.25 -0.765625 C 5.25 -0.703125 5.253906 -0.632812 5.265625 -0.5625 C 5.285156 -0.488281 5.3125 -0.421875 5.34375 -0.359375 C 5.375 -0.296875 5.410156 -0.238281 5.453125 -0.1875 C 5.503906 -0.144531 5.5625 -0.125 5.625 -0.125 L 5.625 0 L 4.109375 0 L 4.109375 -0.125 C 4.160156 -0.125 4.207031 -0.144531 4.25 -0.1875 C 4.300781 -0.238281 4.34375 -0.296875 4.375 -0.359375 C 4.414062 -0.421875 4.441406 -0.488281 4.453125 -0.5625 C 4.472656 -0.632812 4.484375 -0.703125 4.484375 -0.765625 L 4.484375 -2.953125 C 4.484375 -3.234375 4.441406 -3.476562 4.359375 -3.6875 C 4.285156 -3.894531 4.179688 -4.066406 4.046875 -4.203125 C 3.910156 -4.347656 3.757812 -4.453125 3.59375 -4.515625 C 3.425781 -4.585938 3.257812 -4.625 3.09375 -4.625 C 2.914062 -4.625 2.742188 -4.585938 2.578125 -4.515625 C 2.410156 -4.441406 2.257812 -4.347656 2.125 -4.234375 C 2 -4.128906 1.894531 -4 1.8125 -3.84375 C 1.726562 -3.6875 1.6875 -3.53125 1.6875 -3.375 L 1.6875 -0.765625 C 1.6875 -0.703125 1.691406 -0.632812 1.703125 -0.5625 C 1.722656 -0.488281 1.75 -0.421875 1.78125 -0.359375 C 1.820312 -0.296875 1.863281 -0.238281 1.90625 -0.1875 C 1.945312 -0.144531 2 -0.125 2.0625 -0.125 L 2.0625 0 L 0.546875 0 L 0.546875 -0.125 C 0.597656 -0.125 0.644531 -0.144531 0.6875 -0.1875 C 0.738281 -0.238281 0.78125 -0.296875 0.8125 -0.359375 C 0.851562 -0.421875 0.878906 -0.488281 0.890625 -0.5625 C 0.910156 -0.632812 0.921875 -0.703125 0.921875 -0.765625 L 0.921875 -4 C 0.921875 -4.132812 0.898438 -4.257812 0.859375 -4.375 C 0.816406 -4.5 0.703125 -4.566406 0.515625 -4.578125 L 0.515625 -4.6875 L 1.6875 -5.0625 L 1.6875 -4.40625 C 1.738281 -4.46875 1.804688 -4.535156 1.890625 -4.609375 C 1.984375 -4.691406 2.085938 -4.765625 2.203125 -4.828125 C 2.328125 -4.890625 2.46875 -4.941406 2.625 -4.984375 C 2.789062 -5.035156 2.984375 -5.0625 3.203125 -5.0625 C 3.566406 -5.0625 3.878906 -5 4.140625 -4.875 C 4.398438 -4.75 4.609375 -4.582031 4.765625 -4.375 C 4.929688 -4.175781 5.050781 -3.957031 5.125 -3.71875 C 5.207031 -3.488281 5.25 -3.257812 5.25 -3.03125 Z M 5.25 -0.765625 "/></g></g></g><g fill="#ffffff" fill-opacity="1"><g transform="translate(229.955732, 257.809699)"><g><path d="M 1.671875 -4.53125 L 1.671875 -1.703125 C 1.671875 -1.492188 1.675781 -1.304688 1.6875 -1.140625 C 1.695312 -0.984375 1.71875 -0.847656 1.75 -0.734375 C 1.78125 -0.628906 1.828125 -0.546875 1.890625 -0.484375 C 1.953125 -0.429688 2.035156 -0.40625 2.140625 -0.40625 C 2.304688 -0.40625 2.460938 -0.484375 2.609375 -0.640625 C 2.753906 -0.796875 2.847656 -0.984375 2.890625 -1.203125 L 3 -1.203125 L 3 -0.34375 C 2.925781 -0.34375 2.863281 -0.316406 2.8125 -0.265625 C 2.75 -0.210938 2.660156 -0.15625 2.546875 -0.09375 C 2.429688 -0.03125 2.265625 0 2.046875 0 C 1.765625 0 1.546875 -0.0507812 1.390625 -0.15625 C 1.234375 -0.269531 1.117188 -0.414062 1.046875 -0.59375 C 0.972656 -0.78125 0.929688 -0.984375 0.921875 -1.203125 C 0.910156 -1.421875 0.90625 -1.640625 0.90625 -1.859375 L 0.90625 -4.53125 L 0.25 -4.53125 L 0.25 -4.921875 L 0.90625 -4.921875 L 0.90625 -5.96875 C 0.90625 -6.101562 0.882812 -6.226562 0.84375 -6.34375 C 0.8125 -6.457031 0.695312 -6.519531 0.5 -6.53125 L 0.5 -6.640625 L 1.671875 -7.015625 L 1.671875 -4.921875 L 3 -4.921875 L 3 -4.53125 Z M 1.671875 -4.53125 "/></g></g></g><g fill="#ffffff" fill-opacity="1"><g transform="translate(233.295576, 257.809699)"><g><path d="M 4.34375 -1.34375 C 4.34375 -1.132812 4.289062 -0.941406 4.1875 -0.765625 C 4.082031 -0.597656 3.941406 -0.445312 3.765625 -0.3125 C 3.597656 -0.1875 3.394531 -0.0859375 3.15625 -0.015625 C 2.914062 0.0546875 2.660156 0.09375 2.390625 0.09375 C 2.054688 0.09375 1.78125 0.0507812 1.5625 -0.03125 C 1.351562 -0.125 1.175781 -0.21875 1.03125 -0.3125 C 0.925781 -0.375 0.832031 -0.425781 0.75 -0.46875 C 0.664062 -0.519531 0.570312 -0.546875 0.46875 -0.546875 L 0.46875 -1.4375 L 0.59375 -1.4375 C 0.613281 -1.320312 0.679688 -1.195312 0.796875 -1.0625 C 0.910156 -0.9375 1.046875 -0.816406 1.203125 -0.703125 C 1.359375 -0.597656 1.53125 -0.507812 1.71875 -0.4375 C 1.914062 -0.363281 2.113281 -0.328125 2.3125 -0.328125 C 2.445312 -0.328125 2.585938 -0.34375 2.734375 -0.375 C 2.890625 -0.40625 3.023438 -0.457031 3.140625 -0.53125 C 3.265625 -0.601562 3.367188 -0.691406 3.453125 -0.796875 C 3.535156 -0.898438 3.578125 -1.023438 3.578125 -1.171875 C 3.578125 -1.316406 3.535156 -1.441406 3.453125 -1.546875 C 3.367188 -1.660156 3.257812 -1.757812 3.125 -1.84375 C 2.988281 -1.925781 2.832031 -2 2.65625 -2.0625 C 2.488281 -2.125 2.316406 -2.179688 2.140625 -2.234375 C 1.941406 -2.296875 1.738281 -2.363281 1.53125 -2.4375 C 1.320312 -2.519531 1.132812 -2.613281 0.96875 -2.71875 C 0.8125 -2.832031 0.679688 -2.960938 0.578125 -3.109375 C 0.472656 -3.265625 0.421875 -3.445312 0.421875 -3.65625 C 0.421875 -3.84375 0.453125 -4.015625 0.515625 -4.171875 C 0.585938 -4.335938 0.695312 -4.476562 0.84375 -4.59375 C 1 -4.71875 1.195312 -4.816406 1.4375 -4.890625 C 1.6875 -4.972656 1.984375 -5.015625 2.328125 -5.015625 C 2.628906 -5.015625 2.863281 -4.988281 3.03125 -4.9375 C 3.195312 -4.882812 3.335938 -4.832031 3.453125 -4.78125 C 3.523438 -4.738281 3.59375 -4.707031 3.65625 -4.6875 C 3.726562 -4.664062 3.804688 -4.65625 3.890625 -4.65625 L 3.890625 -3.84375 L 3.796875 -3.84375 C 3.660156 -4.09375 3.445312 -4.285156 3.15625 -4.421875 C 2.863281 -4.554688 2.566406 -4.625 2.265625 -4.625 C 2.066406 -4.625 1.894531 -4.597656 1.75 -4.546875 C 1.613281 -4.492188 1.5 -4.429688 1.40625 -4.359375 C 1.320312 -4.285156 1.257812 -4.203125 1.21875 -4.109375 C 1.175781 -4.015625 1.15625 -3.921875 1.15625 -3.828125 C 1.15625 -3.691406 1.191406 -3.578125 1.265625 -3.484375 C 1.335938 -3.390625 1.4375 -3.304688 1.5625 -3.234375 C 1.695312 -3.171875 1.84375 -3.109375 2 -3.046875 C 2.15625 -2.984375 2.328125 -2.921875 2.515625 -2.859375 C 2.734375 -2.785156 2.953125 -2.707031 3.171875 -2.625 C 3.390625 -2.550781 3.582031 -2.453125 3.75 -2.328125 C 3.925781 -2.210938 4.066406 -2.070312 4.171875 -1.90625 C 4.285156 -1.75 4.34375 -1.5625 4.34375 -1.34375 Z M 4.34375 -1.34375 "/></g></g></g></svg>